 <svg version="1.0" xmlns="http://www.w3.org/2000/svg" width="700.000000pt" height="700.000000pt" viewBox="0 0 700.000000 700.000000" preserveAspectRatio="xMidYMid meet">
<metadata>
Created by potrace 1.12, written by Peter Selinger 2001-2015
</metadata>
<g transform="translate(0.000000,700.000000) scale(0.100000,-0.100000)" fill="#000000" stroke="none">
<path d="M2665 6319 c-3 -8 -4 -165 -3 -349 l3 -335 125 -7 c276 -15 532 -63
790 -148 142 -47 178 -61 270 -102 198 -89 400 -207 565 -331 227 -171 442
-386 612 -612 144 -191 317 -508 393 -720 12 -33 25 -69 30 -80 9 -21 55 -176
70 -235 49 -193 74 -352 90 -584 5 -77 14 -144 18 -148 5 -5 161 -7 348 -6
l339 3 4 40 c8 98 -39 522 -79 710 -32 149 -140 519 -160 550 -3 6 -19 44 -34
85 -39 104 -156 341 -226 461 -337 570 -787 1015 -1366 1351 -93 54 -358 181
-447 214 -23 9 -51 20 -62 24 -79 33 -243 84 -365 115 -36 9 -81 20 -100 26
-69 18 -200 41 -397 69 -38 5 -146 12 -240 16 -142 5 -174 4 -178 -7z"></path>
<path d="M2660 4735 c0 -322 1 -345 18 -345 37 0 279 -30 317 -39 132 -32 167
-42 235 -66 112 -39 224 -95 335 -164 124 -78 166 -112 288 -231 305 -295 487
-691 515 -1120 l7 -105 345 0 345 0 -2 130 c-1 72 -7 168 -14 215 -24 175 -94
431 -159 585 -35 81 -117 246 -146 290 -19 30 -34 57 -34 60 0 9 -113 167
-179 250 -78 99 -259 278 -372 367 -177 141 -387 263 -594 348 -24 10 -160 58
-195 70 -25 8 -71 21 -145 40 -113 30 -345 60 -467 60 l-98 0 0 -345z"></path>
<path d="M1109 5041 c-180 -25 -330 -168 -368 -349 -8 -37 -11 -420 -11 -1265
0 -1270 1 -1310 45 -1512 33 -155 126 -367 223 -510 270 -397 676 -646 1112
-683 107 -9 379 2 445 17 28 7 70 17 95 23 392 92 779 418 984 826 218 436
221 996 8 1431 -63 128 -135 227 -255 349 -174 176 -303 260 -542 352 -35 13
-119 38 -165 48 -132 31 -188 36 -365 37 -185 0 -191 -1 -247 -27 -101 -47
-185 -142 -229 -260 -28 -73 -30 -240 -4 -318 47 -141 163 -255 295 -288 25
-6 92 -14 150 -17 144 -9 244 -31 323 -72 42 -21 127 -84 153 -114 31 -34 90
-130 98 -159 4 -14 14 -50 22 -80 20 -71 23 -217 5 -300 -7 -36 -33 -106 -57
-157 -77 -161 -231 -293 -404 -345 -59 -17 -242 -17 -300 1 -82 25 -105 34
-166 73 -133 83 -240 229 -288 392 -20 70 -20 98 -26 1331 l-5 1260 -38 77
c-85 175 -276 269 -488 239z"></path>
</g>
</svg>